# xmcd
#
# Track frame offsets: 
#        150
#        14811
#        38342
#        56930
#        95373
#        110219
#        136575
#        161415
#        176560
#        193516
#        215102
#        238953
#
# Disc length: 3476 seconds
#
# Revision: 1
# Processed by: cddbd v1.5.2PL0 Copyright (c) Steve Scherf et al.
# Submitted via: ExactAudioCopyFreeDBPlugin 1.0
#
DISCID=ab0d920c
DTITLE=B.B. King - Icon 2 [CD2]
DYEAR=2011
DGENRE=Blues
TTITLE0=Ain't Nobody Home
TTITLE1=Ghetto Woman
TTITLE2=Guess Who
TTITLE3=To Know You Is to Love You
TTITLE4=I Like to Live the Love
TTITLE5=Let the Good Times Roll [Live]
TTITLE6=Never Make a Move Too Soon
TTITLE7=Better Not Look Down
TTITLE8=There Must Be a Better World Somewhere
TTITLE9=When Love Comes to Town [Live]
TTITLE10=Playin' with My Friends
TTITLE11=I'll Survive
EXTD=
EXTT0=
EXTT1=
EXTT2=
EXTT3=
EXTT4=
EXTT5=
EXTT6=
EXTT7=
EXTT8=
EXTT9=
EXTT10=
EXTT11=
PLAYORDER=
